<svg height="511pt" viewBox="0 -19 511.99843 511" width="511pt" xmlns="http://www.w3.org/2000/svg"><path d="m68.714844 320.921875h-27.824219c-18.625 0-33.777344 15.15625-33.777344 33.78125v87.144531c0 5.519532 4.476563 10 10 10h75.382813c5.523437 0 10-4.480468 10-10v-87.144531c0-18.625-15.152344-33.78125-33.78125-33.78125zm13.78125 110.921875h-55.382813v-77.140625c0-7.597656 6.179688-13.78125 13.777344-13.78125h27.828125c7.597656 0 13.777344 6.183594 13.777344 13.78125zm0 0"/><path d="m198.027344 280.921875h-27.824219c-18.625 0-33.78125 15.152344-33.78125 33.78125v127.144531c0 5.519532 4.476563 10 10 10h75.386719c5.523437 0 10-4.480468 10-10v-127.144531c0-18.628906-15.152344-33.78125-33.78125-33.78125zm13.78125 150.921875h-55.382813v-117.140625c0-7.601563 6.179688-13.78125 13.777344-13.78125h27.828125c7.597656 0 13.777344 6.183594 13.777344 13.78125zm0 0"/><path d="m327.339844 226.492188h-27.824219c-18.625 0-33.78125 15.15625-33.78125 33.78125v181.570312c0 5.523438 4.480469 10 10 10h75.386719c5.523437 0 10-4.476562 10-10v-181.570312c0-18.625-15.152344-33.78125-33.78125-33.78125zm13.78125 205.351562h-55.382813v-171.570312c0-7.597657 6.179688-13.78125 13.777344-13.78125h27.828125c7.597656 0 13.777344 6.183593 13.777344 13.78125zm0 0"/><path d="m433.191406 110.171875c9.058594 11.199219 27.085938 7 30.214844-7.105469l17.460938-78.636718c2.699218-12.160157-6.441407-23.933594-19.363282-23.929688l-80.550781.652344c-14.40625.121094-22.339844 16.84375-13.253906 28.070312l13.300781 16.441406c-50.34375 41.652344-117.761719 80.203126-200.386719 114.585938-67.898437 28.25-128.699219 46.316406-158.894531 54.566406-16.855469 4.605469-26.03125 22.8125-19.714844 39.105469 5.34375 13.785156 20.191406 21.519531 34.554688 17.980469 41.183594-10.152344 148.058594-39.386719 250.707031-91.417969 4.925781-2.5 6.898437-8.515625 4.398437-13.441406-2.496093-4.925781-8.515624-6.894531-13.4375-4.398438-100.8125 51.097657-205.9375 79.851563-246.457031 89.839844-7.785156 1.914063-14.410156-6.226563-10.746093-13.5 1.226562-2.425781 3.34375-4.15625 5.96875-4.871094 121.664062-33.253906 270.515624-93.222656 367.199218-173.40625 8.152344-6.761719 9.359375-18.96875 2.691406-27.210937l-10.023437-12.386719 74.390625-.605469-16.121094 72.628906-10.171875-12.574218c-7.09375-8.769532-19.851562-9.519532-28.015625-2.324219-16.542968 14.578125-35.488281 28.9375-56.308594 42.679687-4.609374 3.042969-5.882812 9.246094-2.839843 13.855469s9.246093 5.878907 13.855469 2.835938c21.425781-14.140625 40.980468-28.949219 58.121093-44.019531zm0 0"/><path d="m490.433594 352.253906v-166.035156c0-18.628906-15.152344-33.78125-33.777344-33.78125h-27.828125c-18.625 0-33.777344 15.152344-33.777344 33.78125v164.59375c-47.257812 42.730469-17.300781 121.976562 46.917969 121.976562 38.613281 0 70.03125-31.414062 70.03125-70.03125 0-19.824218-8.28125-37.75-21.566406-50.503906zm-75.382813-14.1875v-151.847656c0-7.601562 6.179688-13.78125 13.777344-13.78125h27.828125c7.597656 0 13.777344 6.183594 13.777344 13.78125v152.558594c-17.671875-7.894532-37.941406-7.988282-55.382813-.710938zm26.917969 114.722656c-27.585938 0-50.03125-22.441406-50.03125-50.03125 0-35.933593 37.203125-60.179687 70.058594-45.84375 17.644531 7.738282 30.003906 25.375 30.003906 45.84375 0 27.585938-22.445312 50.03125-50.03125 50.03125zm0 0"/><path d="m460.101562 376.71875c-12.726562 10.230469-19.90625 23.902344-23.617187 33.222656l-15.199219-5.707031c-5.167968-1.945313-10.933594.671875-12.875 5.84375s.675782 10.9375 5.84375 12.878906l19.484375 7.316407c8.183594 3.070312 17.265625-1.273438 20.0625-9.515626 2.324219-6.839843 7.859375-19.628906 18.832031-28.453124 4.304688-3.457032 4.988282-9.753907 1.527344-14.058594-3.457031-4.300782-9.75-4.984375-14.058594-1.527344zm0 0"/><path d="m327.917969 152.683594c0-5.523438-4.476563-10-10-10h-.027344c-5.523437 0-9.988281 4.476562-9.988281 10 0 5.519531 4.492187 10 10.015625 10 5.523437 0 10-4.476563 10-10zm0 0"/></svg>